<?xml version="1.0" standalone="no"?>
<svg viewBox="0 0 200 200" xmlns="http://www.w3.org/2000/svg">
  <path fill="#E00557" d="M41.8,-76.7C52.3,-66.2,57.9,-51.4,64.1,-37.9C70.3,-24.5,77,-12.2,80.4,2C83.9,16.2,84,32.4,76.1,43C68.3,53.6,52.6,58.7,38.6,60.4C24.6,62.2,12.3,60.5,-1.2,62.6C-14.6,64.6,-29.3,70.4,-43.4,68.7C-57.5,67,-71,57.9,-79.4,45.2C-87.9,32.5,-91.3,16.3,-91.2,0C-91.2,-16.2,-87.6,-32.4,-76.8,-41C-66,-49.7,-48,-50.7,-34,-59.3C-20,-67.8,-10,-83.8,2.8,-88.6C15.6,-93.5,31.2,-87.2,41.8,-76.7Z" transform="translate(100 100)" />
</svg>
